<svg width="100" height="100" xmlns="http://www.w3.org/2000/svg" style="fill:#444; stroke:#444">
 <g>
  <title>Layer 1</title>
  <path id="svg_1" d="m64.103333,32.851669c-1.471001,0.116997 -2.911995,0.260998 -4.344002,0.416l0,11.811996c0,2.815002 -2.404995,5.845001 -7.684994,5.845001c-5.278004,0 -7.683002,-3.029999 -7.683002,-5.845001l0,-9.390999c-7.75,1.664001 -14.612001,3.879002 -20.275002,6.524002c-2.094999,0.977997 -4.032999,2.012997 -5.782999,3.105999l0,38.914997l63.261003,15.432999l0,-39.496998l-17.491005,-27.317997zm11.705002,59.470993l-51.692001,-12.616997l0,-11.642998l51.692001,12.842995l0,11.417zm0,-17.376999l-51.663,-12.841995l-0.030001,-11.644001l51.692001,12.861l0,11.624996l0.000999,0z" fill="##444"/>
  <path id="svg_2" d="m52.284863,46.412331c1.661995,0 3.007999,-0.521999 3.007999,-1.167l0,-27.849997c0,-0.413 -1.346004,-0.748001 -3.007999,-0.748001c-1.66,0 -3.006001,0.335001 -3.006001,0.748001l0,27.848997c0,0.646 1.346001,1.167999 3.006001,1.167999z" fill="##444"/>
  <path id="svg_3" d="m56.126526,8.907333c0,2.03 -1.646,3.674 -3.674,3.674c-2.028999,0 -3.674999,-1.645 -3.674999,-3.674c0,-2.03 1.645,-8.574 3.674999,-8.574c2.028999,0 3.674,6.544 3.674,8.574z" fill="##444"/>
 </g>
</svg>